<svg xmlns="http://www.w3.org/2000/svg" width="20.266" height="19.752" viewBox="0 0 20.266 19.752">
  <path id="Icon_awesome-arrow-right" data-name="Icon awesome-arrow-right" d="M8.616,3.97l1-1a1.081,1.081,0,0,1,1.533,0l8.793,8.788a1.081,1.081,0,0,1,0,1.533l-8.793,8.793a1.081,1.081,0,0,1-1.533,0l-1-1a1.087,1.087,0,0,1,.018-1.551l5.45-5.192h-13A1.083,1.083,0,0,1,0,13.247V11.8a1.083,1.083,0,0,1,1.086-1.086h13L8.635,5.522A1.079,1.079,0,0,1,8.616,3.97Z" transform="translate(0 -2.647)" fill="#3f63c8"/>
</svg>
