<svg xmlns="http://www.w3.org/2000/svg" width="640" height="611.739" viewBox="0 0 640 611.739">
  <g id="linkedin" transform="translate(0 0.668)">
    <path id="Path_8357" data-name="Path 8357" d="M77.613-.668C30.684-.668,0,30.148,0,70.652c0,39.609,29.77,71.3,75.813,71.3H76.7c47.848,0,77.625-31.7,77.625-71.3-.895-40.5-29.777-71.32-76.715-71.32Zm0,0" fill="#e7ebf6"/>
    <path id="Path_8358" data-name="Path 8358" d="M8.109,198.313H145.3V611.071H8.109Zm0,0" fill="#e7ebf6"/>
    <path id="Path_8359" data-name="Path 8359" d="M482.055,188.625c-74.012,0-123.641,69.547-123.641,69.547V198.313h-137.2V611.07H358.406V380.57c0-12.34.895-24.66,4.52-33.484,9.918-24.641,32.488-50.168,70.391-50.168,49.645,0,69.5,37.852,69.5,93.34V611.071H640V374.4c0-126.781-67.687-185.777-157.945-185.777Zm0,0" fill="#e7ebf6"/>
  </g>
</svg>
