<svg xmlns="http://www.w3.org/2000/svg" width="78" height="78" viewBox="0 0 78 78">
  <g id="Group_13285" data-name="Group 13285" transform="translate(16318 21896)">
    <g id="Group_12376" data-name="Group 12376" transform="translate(-16317.73 -21896.002)">
      <rect id="Rectangle_2521" data-name="Rectangle 2521" width="78" height="78" rx="4" transform="translate(-0.27 0.003)"/>
    </g>
    <path id="Icon_awesome-apple" data-name="Icon awesome-apple" d="M25.245,21.026A7.405,7.405,0,0,1,29.211,14.3a8.523,8.523,0,0,0-6.719-3.538c-2.816-.222-5.894,1.642-7.02,1.642-1.19,0-3.919-1.563-6.06-1.563-4.426.071-9.13,3.53-9.13,10.566a19.771,19.771,0,0,0,1.142,6.441C2.439,30.76,6.1,37.9,9.927,37.78c2-.048,3.411-1.42,6.013-1.42,2.523,0,3.831,1.42,6.06,1.42,3.855-.056,7.171-6.544,8.139-9.464a7.863,7.863,0,0,1-4.894-7.29ZM20.755,8a7.471,7.471,0,0,0,1.9-5.751,8.411,8.411,0,0,0-5.386,2.768,7.588,7.588,0,0,0-2.031,5.7A6.662,6.662,0,0,0,20.755,8Z" transform="translate(-16293.551 -21877.049)" fill="#fff"/>
  </g>
</svg>
