<svg xmlns="http://www.w3.org/2000/svg" width="78" height="78" viewBox="0 0 78 78">
  <g id="Group_13286" data-name="Group 13286" transform="translate(16412 21896)">
    <rect id="Rectangle_2522" data-name="Rectangle 2522" width="78" height="78" rx="4" transform="translate(-16412 -21896)" fill="#0e76a8"/>
    <path id="Icon_awesome-linkedin-in" data-name="Icon awesome-linkedin-in" d="M5.34,23.858H.394V7.93H5.34ZM2.864,5.757A2.878,2.878,0,1,1,5.729,2.865,2.889,2.889,0,0,1,2.864,5.757Zm20.988,18.1H18.917V16.1c0-1.848-.037-4.218-2.572-4.218-2.572,0-2.966,2.008-2.966,4.085v7.887H8.438V7.93h4.744V10.1h.069a5.2,5.2,0,0,1,4.68-2.572c5.006,0,5.926,3.3,5.926,7.578v8.749Z" transform="translate(-16386.252 -21869.107)" fill="#fff"/>
  </g>
</svg>
