<svg xmlns="http://www.w3.org/2000/svg" xmlns:xlink="http://www.w3.org/1999/xlink" width="68" height="68" viewBox="0 0 68 68">
  <defs>
    <clipPath id="clip-path">
      <rect id="Rectangle_3061" data-name="Rectangle 3061" width="47" height="47" transform="translate(0.541 0.51)" fill="none"/>
    </clipPath>
  </defs>
  <g id="Group_13246" data-name="Group 13246" transform="translate(-293.092 -814.879)">
    <g id="Path_8334" data-name="Path 8334" transform="translate(293.092 814.879)" fill="#f5f7fc">
      <path d="M 34 67.5 C 29.47731018066406 67.5 25.09016990661621 66.61434173583984 20.96043968200684 64.86760711669922 C 16.97134971618652 63.18035888671875 13.38866996765137 60.76482009887695 10.31192016601563 57.68807983398438 C 7.235179901123047 54.611328125 4.819640159606934 51.02864837646484 3.132390022277832 47.03955841064453 C 1.3856600522995 42.90982818603516 0.5 38.52268981933594 0.5 34 C 0.5 29.47731018066406 1.3856600522995 25.09016990661621 3.132390022277832 20.96043968200684 C 4.819640159606934 16.97134971618652 7.235179901123047 13.38866996765137 10.31192016601563 10.31192016601563 C 13.38866996765137 7.235179901123047 16.97134971618652 4.819640159606934 20.96043968200684 3.132390022277832 C 25.09016990661621 1.3856600522995 29.47731018066406 0.5 34 0.5 C 38.52268981933594 0.5 42.90982818603516 1.3856600522995 47.03955841064453 3.132390022277832 C 51.02864837646484 4.819640159606934 54.611328125 7.235179901123047 57.68807983398438 10.31192016601563 C 60.76482009887695 13.38866996765137 63.18035888671875 16.97134971618652 64.86760711669922 20.96043968200684 C 66.61434173583984 25.09016990661621 67.5 29.47731018066406 67.5 34 C 67.5 38.52268981933594 66.61434173583984 42.90982818603516 64.86760711669922 47.03955841064453 C 63.18035888671875 51.02864837646484 60.76482009887695 54.611328125 57.68807983398438 57.68807983398438 C 54.611328125 60.76482009887695 51.02864837646484 63.18035888671875 47.03955841064453 64.86760711669922 C 42.90982818603516 66.61434173583984 38.52268981933594 67.5 34 67.5 Z" stroke="none"/>
      <path d="M 34 1 C 29.54458999633789 1 25.22298049926758 1.872383117675781 21.15522003173828 3.592887878417969 C 17.2257194519043 5.254928588867188 13.69646072387695 7.634490966796875 10.66548156738281 10.66548156738281 C 7.634490966796875 13.69646072387695 5.254928588867188 17.2257194519043 3.592887878417969 21.15522003173828 C 1.872383117675781 25.22298049926758 1 29.54458999633789 1 34 C 1 38.45541000366211 1.872383117675781 42.77701950073242 3.592887878417969 46.84477996826172 C 5.254928588867188 50.7742805480957 7.634490966796875 54.30353927612305 10.66548156738281 57.33451843261719 C 13.69646072387695 60.36550903320313 17.2257194519043 62.74507141113281 21.15522003173828 64.40711212158203 C 25.22298049926758 66.12761688232422 29.54458999633789 67 34 67 C 38.45541000366211 67 42.77701950073242 66.12761688232422 46.84477996826172 64.40711212158203 C 50.7742805480957 62.74507141113281 54.30353927612305 60.36550903320313 57.33451843261719 57.33451843261719 C 60.36550903320313 54.30353927612305 62.74507141113281 50.7742805480957 64.40711212158203 46.84477996826172 C 66.12761688232422 42.77701950073242 67 38.45541000366211 67 34 C 67 29.54458999633789 66.12761688232422 25.22298049926758 64.40711212158203 21.15522003173828 C 62.74507141113281 17.2257194519043 60.36550903320313 13.69646072387695 57.33451843261719 10.66548156738281 C 54.30353927612305 7.634490966796875 50.7742805480957 5.254928588867188 46.84477996826172 3.592887878417969 C 42.77701950073242 1.872383117675781 38.45541000366211 1 34 1 M 34 0 C 52.77767944335938 0 68 15.22232055664063 68 34 C 68 52.77767944335938 52.77767944335938 68 34 68 C 15.22232055664063 68 0 52.77767944335938 0 34 C 0 15.22232055664063 15.22232055664063 0 34 0 Z" stroke="none" fill="#3f63c8"/>
    </g>
    <rect id="Rectangle_2945" data-name="Rectangle 2945" width="50" height="49" transform="translate(303.092 824.879)" fill="none"/>
    <g id="Mask_Group_139" data-name="Mask Group 139" transform="translate(303.551 825.369)" clip-path="url(#clip-path)">
      <g id="communications" transform="translate(6.067 6.784)">
        <g id="Group_13258" data-name="Group 13258" transform="translate(0 0)">
          <path id="Path_8347" data-name="Path 8347" d="M9.8,24.248H8.217a.52.52,0,0,0-.275.079l-3.683,2.3V24.768a.519.519,0,0,0-.52-.52H1.919a.881.881,0,0,1-.88-.88V7.974a.881.881,0,0,1,.88-.88H20.113a.881.881,0,0,1,.88.88v2.968a.52.52,0,1,0,1.039,0V7.974a1.921,1.921,0,0,0-1.919-1.919H1.919A1.921,1.921,0,0,0,0,7.974V23.368a1.921,1.921,0,0,0,1.919,1.919h1.3v2.28a.523.523,0,0,0,.795.44l4.352-2.72H9.8a.519.519,0,1,0,0-1.039Z" transform="translate(0 -6.055)" fill="#3f63c8"/>
          <path id="Path_8348" data-name="Path 8348" d="M291.808,226.036A2.767,2.767,0,0,0,289.8,228.7v.144a1.639,1.639,0,0,0,3.262.226,4.582,4.582,0,1,0-6.2-4.283,1.639,1.639,0,0,0,3.278,0,1.326,1.326,0,0,1,.013-.184,1.3,1.3,0,1,1,1.658,1.433Zm1.965-1.422a2.355,2.355,0,0,0-2.1-2.156q-.119-.012-.237-.012a2.336,2.336,0,0,0-2.321,2.013,2.375,2.375,0,0,0-.023.327.6.6,0,1,1-1.2,0,3.574,3.574,0,0,1,.034-.493,3.541,3.541,0,1,1,4.51,3.89.559.559,0,0,0-.389.393.516.516,0,0,0-.016.128v.139a.6.6,0,0,1-1.2,0V228.7a1.736,1.736,0,0,1,1.264-1.667A2.33,2.33,0,0,0,293.773,224.613Z" transform="translate(-266.988 -205.372)" fill="#3f63c8"/>
          <path id="Path_8349" data-name="Path 8349" d="M330.952,389.155a1.639,1.639,0,1,0-1.639-1.639A1.641,1.641,0,0,0,330.952,389.155Zm0-2.239a.6.6,0,1,1-.6.6A.6.6,0,0,1,330.952,386.916Z" transform="translate(-306.501 -359.567)" fill="#3f63c8"/>
          <path id="Path_8350" data-name="Path 8350" d="M70.711,122.854a1.639,1.639,0,1,0,1.639-1.639A1.641,1.641,0,0,0,70.711,122.854Zm2.239,0a.6.6,0,1,1-.6-.6A.6.6,0,0,1,72.95,122.854Z" transform="translate(-65.813 -113.238)" fill="#3f63c8"/>
          <path id="Path_8351" data-name="Path 8351" d="M138.639,122.854A1.639,1.639,0,1,0,137,124.493,1.641,1.641,0,0,0,138.639,122.854Zm-1.639.6a.6.6,0,1,1,.6-.6A.6.6,0,0,1,137,123.454Z" transform="translate(-125.984 -113.238)" fill="#3f63c8"/>
          <path id="Path_8352" data-name="Path 8352" d="M200.012,122.854a1.639,1.639,0,1,0,1.639-1.639A1.641,1.641,0,0,0,200.012,122.854Zm2.239,0a.6.6,0,1,1-.6-.6A.6.6,0,0,1,202.251,122.854Z" transform="translate(-186.157 -113.238)" fill="#3f63c8"/>
          <path id="Path_8353" data-name="Path 8353" d="M190.86,109.9H179.343v-5.285a.52.52,0,1,0-1.039,0V109.9h-5.639a1.921,1.921,0,0,0-1.919,1.919V115.5H169.54a.52.52,0,0,0,0,1.039h1.207v10.677a1.921,1.921,0,0,0,1.919,1.919h7.885a.52.52,0,0,0,0-1.039h-7.885a.881.881,0,0,1-.88-.88V111.818a.881.881,0,0,1,.88-.88H190.86a.881.881,0,0,1,.88.88v15.395a.881.881,0,0,1-.88.88h-1.82a.52.52,0,0,0-.52.52v1.862l-3.683-2.3a.52.52,0,0,0-.275-.079h-1.586a.52.52,0,0,0,0,1.039h1.437l4.352,2.72a.523.523,0,0,0,.795-.441v-2.28h1.3a1.921,1.921,0,0,0,1.919-1.919V111.818A1.921,1.921,0,0,0,190.86,109.9Z" transform="translate(-157.312 -97.304)" fill="#3f63c8"/>
        </g>
      </g>
    </g>
  </g>
</svg>
