<svg xmlns="http://www.w3.org/2000/svg" width="120" height="120" viewBox="0 0 120 120">
  <g id="Group_10365" data-name="Group 10365" transform="translate(-762 -2240)">
    <path id="Path_7894" data-name="Path 7894" d="M60,0A60,60,0,1,1,0,60,60,60,0,0,1,60,0Z" transform="translate(762 2240)" fill="#8dc737"/>
    <g id="time-management" transform="translate(797 2275)">
      <path id="Path_7823" data-name="Path 7823" d="M31,56h1.639v1.639H31Z" transform="translate(-7.228 -11.735)" fill="#fff" stroke="#fff" stroke-width="1"/>
      <path id="Path_7824" data-name="Path 7824" d="M0,0H1.639V1.639H0Z" transform="translate(37.916 39.082) rotate(-45)" fill="#fff" stroke="#fff" stroke-width="1"/>
      <path id="Path_7825" data-name="Path 7825" d="M56,31h1.639v1.639H56Z" transform="translate(-11.734 -7.229)" fill="#fff" stroke="#fff" stroke-width="1"/>
      <path id="Path_7826" data-name="Path 7826" d="M50.365,20.854H44.553a18.483,18.483,0,0,0-1.2-2.9l4.108-4.109a.82.82,0,0,0,0-1.159L43.981,9.206A24.592,24.592,0,1,0,9.2,43.983L12.68,47.46a.82.82,0,0,0,1.159,0l4.109-4.108a18.493,18.493,0,0,0,2.906,1.2v5.813a.82.82,0,0,0,.82.82h9.837a.82.82,0,0,0,.82-.82V44.553a18.491,18.491,0,0,0,2.9-1.2l4.109,4.108a.82.82,0,0,0,1.159,0l6.956-6.956a.82.82,0,0,0,0-1.159l-4.108-4.109a18.493,18.493,0,0,0,1.2-2.907h5.813a.82.82,0,0,0,.82-.82V21.674a.82.82,0,0,0-.82-.82Zm-40-10.493A22.944,22.944,0,0,1,42.228,9.8l-1.157,1.157A21.313,21.313,0,0,0,10.953,41.071L9.8,42.228A22.944,22.944,0,0,1,10.361,10.362Zm23.186,9.275A9.837,9.837,0,1,1,19.637,33.548a.82.82,0,0,0-1.159,0l-6.364,6.364a19.674,19.674,0,0,1,27.8-27.8l-6.364,6.364a.82.82,0,0,0,0,1.16Zm16,11.054h-5.6a.82.82,0,0,0-.79.6,16.8,16.8,0,0,1-1.526,3.689.82.82,0,0,0,.136.984l3.959,3.959-5.8,5.8L35.965,41.76a.82.82,0,0,0-.984-.136,16.8,16.8,0,0,1-3.689,1.526.82.82,0,0,0-.6.79v5.605h-8.2v-5.6a.82.82,0,0,0-.6-.79A16.8,16.8,0,0,1,18.2,41.626a.82.82,0,0,0-.984.136L13.262,45.72,10.943,43.4l8.136-8.135A11.476,11.476,0,0,0,35.267,19.078L43.4,10.942,45.72,13.26,41.762,17.22a.82.82,0,0,0-.136.984,16.783,16.783,0,0,1,1.526,3.689.82.82,0,0,0,.79.6h5.6Z" transform="translate(-2 -2.002)" fill="#fff" stroke="#fff" stroke-width="1"/>
      <path id="Path_7827" data-name="Path 7827" d="M30.657,25.953V16.82a.82.82,0,0,0-1.639,0v9.134A3.279,3.279,0,0,0,26.674,28.3H20.82a.82.82,0,1,0,0,1.639h5.855a3.272,3.272,0,1,0,3.982-3.982Zm-.82,4.8a1.639,1.639,0,1,1,1.639-1.639A1.639,1.639,0,0,1,29.837,30.755Z" transform="translate(-5.245 -4.525)" fill="#fff" stroke="#fff" stroke-width="1"/>
      <path id="Path_7828" data-name="Path 7828" d="M31.82,12.279a.82.82,0,0,1-.82-.82V9.82a.82.82,0,1,1,1.639,0v1.639A.82.82,0,0,1,31.82,12.279Z" transform="translate(-7.228 -3.263)" fill="#fff" stroke="#fff" stroke-width="1"/>
      <path id="Path_7829" data-name="Path 7829" d="M41.82,15.007a.82.82,0,0,1-.709-1.23l.82-1.421a.82.82,0,1,1,1.42.82l-.82,1.421A.82.82,0,0,1,41.82,15.007Z" transform="translate(-9.03 -3.794)" fill="#fff" stroke="#fff" stroke-width="1"/>
      <path id="Path_7830" data-name="Path 7830" d="M21.639,15.007a.82.82,0,0,1-.711-.41l-.82-1.421a.82.82,0,1,1,1.42-.82l.82,1.421a.82.82,0,0,1-.709,1.23Z" transform="translate(-5.244 -3.794)" fill="#fff" stroke="#fff" stroke-width="1"/>
      <path id="Path_7831" data-name="Path 7831" d="M14.186,22.459a.813.813,0,0,1-.41-.11l-1.421-.82a.82.82,0,1,1,.82-1.42l1.421.82a.82.82,0,0,1-.41,1.53Z" transform="translate(-3.793 -5.246)" fill="#fff" stroke="#fff" stroke-width="1"/>
      <path id="Path_7832" data-name="Path 7832" d="M11.459,32.639H9.82A.82.82,0,1,1,9.82,31h1.639a.82.82,0,1,1,0,1.639Z" transform="translate(-3.262 -7.229)" fill="#fff" stroke="#fff" stroke-width="1"/>
      <path id="Path_7833" data-name="Path 7833" d="M12.768,43.459a.82.82,0,0,1-.41-1.53l1.421-.82a.82.82,0,1,1,.82,1.42l-1.421.82A.813.813,0,0,1,12.768,43.459Z" transform="translate(-3.793 -9.031)" fill="#fff" stroke="#fff" stroke-width="1"/>
      <path id="Path_7834" data-name="Path 7834" d="M30.673,38.867a8.127,8.127,0,0,1-5.794-2.405A.82.82,0,1,1,26.04,35.3a6.554,6.554,0,1,0,9.268-9.268.82.82,0,1,1,1.157-1.16,8.2,8.2,0,0,1-5.792,13.991Z" transform="translate(-6.081 -6.079)" fill="#fff" stroke="#fff" stroke-width="1"/>
    </g>
  </g>
</svg>
