<svg xmlns="http://www.w3.org/2000/svg" width="120" height="120" viewBox="0 0 120 120">
  <g id="Group_10364" data-name="Group 10364" transform="translate(-1041 -2240)">
    <circle id="Ellipse_989" data-name="Ellipse 989" cx="60" cy="60" r="60" transform="translate(1041 2240)" fill="#3f63c8"/>
    <g id="verified" transform="translate(1079 2274)">
      <path id="Path_7835" data-name="Path 7835" d="M83.137,8.522,62.99.157a2.056,2.056,0,0,0-1.577,0L41.267,8.522A2.056,2.056,0,0,0,40,10.42V20.589A34.427,34.427,0,0,0,61.425,52.475a2.056,2.056,0,0,0,1.554,0A34.427,34.427,0,0,0,84.4,20.589V10.42A2.056,2.056,0,0,0,83.137,8.522ZM80.292,20.589A30.322,30.322,0,0,1,62.2,48.338a30.323,30.323,0,0,1-18.091-27.75v-8.8L62.2,4.282l18.09,7.511ZM59.93,27.518l8.836-8.836a2.056,2.056,0,1,1,2.907,2.907L61.383,31.879a2.056,2.056,0,0,1-2.907,0l-5.745-5.745a2.056,2.056,0,0,1,2.907-2.907Z" transform="translate(-40 0)" fill="#fff"/>
    </g>
  </g>
</svg>
