<svg xmlns="http://www.w3.org/2000/svg" xmlns:xlink="http://www.w3.org/1999/xlink" width="68" height="68" viewBox="0 0 68 68">
  <defs>
    <clipPath id="clip-path">
      <rect id="Rectangle_3060" data-name="Rectangle 3060" width="45" height="45" transform="translate(-0.094 -0.103)" fill="none"/>
    </clipPath>
  </defs>
  <g id="Group_13246" data-name="Group 13246" transform="translate(-293.092 -814.879)">
    <g id="Path_8334" data-name="Path 8334" transform="translate(293.092 814.879)" fill="#f5f7fc">
      <path d="M 34 67.5 C 29.47731018066406 67.5 25.09016990661621 66.61434173583984 20.96043968200684 64.86760711669922 C 16.97134971618652 63.18035888671875 13.38866996765137 60.76482009887695 10.31192016601563 57.68807983398438 C 7.235179901123047 54.611328125 4.819640159606934 51.02864837646484 3.132390022277832 47.03955841064453 C 1.3856600522995 42.90982818603516 0.5 38.52268981933594 0.5 34 C 0.5 29.47731018066406 1.3856600522995 25.09016990661621 3.132390022277832 20.96043968200684 C 4.819640159606934 16.97134971618652 7.235179901123047 13.38866996765137 10.31192016601563 10.31192016601563 C 13.38866996765137 7.235179901123047 16.97134971618652 4.819640159606934 20.96043968200684 3.132390022277832 C 25.09016990661621 1.3856600522995 29.47731018066406 0.5 34 0.5 C 38.52268981933594 0.5 42.90982818603516 1.3856600522995 47.03955841064453 3.132390022277832 C 51.02864837646484 4.819640159606934 54.611328125 7.235179901123047 57.68807983398438 10.31192016601563 C 60.76482009887695 13.38866996765137 63.18035888671875 16.97134971618652 64.86760711669922 20.96043968200684 C 66.61434173583984 25.09016990661621 67.5 29.47731018066406 67.5 34 C 67.5 38.52268981933594 66.61434173583984 42.90982818603516 64.86760711669922 47.03955841064453 C 63.18035888671875 51.02864837646484 60.76482009887695 54.611328125 57.68807983398438 57.68807983398438 C 54.611328125 60.76482009887695 51.02864837646484 63.18035888671875 47.03955841064453 64.86760711669922 C 42.90982818603516 66.61434173583984 38.52268981933594 67.5 34 67.5 Z" stroke="none"/>
      <path d="M 34 1 C 29.54458999633789 1 25.22298049926758 1.872383117675781 21.15522003173828 3.592887878417969 C 17.2257194519043 5.254928588867188 13.69646072387695 7.634490966796875 10.66548156738281 10.66548156738281 C 7.634490966796875 13.69646072387695 5.254928588867188 17.2257194519043 3.592887878417969 21.15522003173828 C 1.872383117675781 25.22298049926758 1 29.54458999633789 1 34 C 1 38.45541000366211 1.872383117675781 42.77701950073242 3.592887878417969 46.84477996826172 C 5.254928588867188 50.7742805480957 7.634490966796875 54.30353927612305 10.66548156738281 57.33451843261719 C 13.69646072387695 60.36550903320313 17.2257194519043 62.74507141113281 21.15522003173828 64.40711212158203 C 25.22298049926758 66.12761688232422 29.54458999633789 67 34 67 C 38.45541000366211 67 42.77701950073242 66.12761688232422 46.84477996826172 64.40711212158203 C 50.7742805480957 62.74507141113281 54.30353927612305 60.36550903320313 57.33451843261719 57.33451843261719 C 60.36550903320313 54.30353927612305 62.74507141113281 50.7742805480957 64.40711212158203 46.84477996826172 C 66.12761688232422 42.77701950073242 67 38.45541000366211 67 34 C 67 29.54458999633789 66.12761688232422 25.22298049926758 64.40711212158203 21.15522003173828 C 62.74507141113281 17.2257194519043 60.36550903320313 13.69646072387695 57.33451843261719 10.66548156738281 C 54.30353927612305 7.634490966796875 50.7742805480957 5.254928588867188 46.84477996826172 3.592887878417969 C 42.77701950073242 1.872383117675781 38.45541000366211 1 34 1 M 34 0 C 52.77767944335938 0 68 15.22232055664063 68 34 C 68 52.77767944335938 52.77767944335938 68 34 68 C 15.22232055664063 68 0 52.77767944335938 0 34 C 0 15.22232055664063 15.22232055664063 0 34 0 Z" stroke="none" fill="#3f63c8"/>
    </g>
    <rect id="Rectangle_2945" data-name="Rectangle 2945" width="50" height="49" transform="translate(303.092 824.879)" fill="none"/>
    <g id="Mask_Group_138" data-name="Mask Group 138" transform="translate(305.186 826.982)" clip-path="url(#clip-path)">
      <g id="knowledge" transform="translate(5.87 6.713)">
        <path id="Path_8335" data-name="Path 8335" d="M271.878,98.169a5.669,5.669,0,0,0,.667-8.608A5.36,5.36,0,0,0,268.679,88a5.547,5.547,0,0,0-5.383,5.6,5.634,5.634,0,0,0,2.341,4.575.293.293,0,0,1,.117.241v.729a1.637,1.637,0,0,0,.273,2.963v.64a1.64,1.64,0,0,0,1.638,1.638h2.184a1.64,1.64,0,0,0,1.638-1.638v-.64a1.637,1.637,0,0,0,.273-2.963v-.729A.294.294,0,0,1,271.878,98.169Zm-7.49-4.576a4.451,4.451,0,0,1,4.306-4.5h.062a4.28,4.28,0,0,1,3.022,1.249,4.577,4.577,0,0,1-.535,6.941,1.388,1.388,0,0,0-.576,1.131v.508h-3.823v-.509a1.387,1.387,0,0,0-.575-1.13A4.54,4.54,0,0,1,264.388,93.594Zm5.461,9.695h-2.184a.547.547,0,0,1-.546-.546V102.2H270.4v.546A.547.547,0,0,1,269.849,103.288Zm1.092-2.184h-4.369a.546.546,0,0,1,0-1.092h4.369a.546.546,0,1,1,0,1.092Z" transform="translate(-246.415 -84.721)" fill="#3f63c8"/>
        <path id="Path_8336" data-name="Path 8336" d="M351.633,124.187a2.469,2.469,0,0,1,1.422,1.613.546.546,0,1,0,1.051-.3,3.569,3.569,0,0,0-2.06-2.328.546.546,0,0,0-.414,1.011Z" transform="translate(-328.406 -117.46)" fill="#3f63c8"/>
        <path id="Path_8337" data-name="Path 8337" d="M336.392,41.638V40.546a.546.546,0,0,0-1.092,0v1.092a.546.546,0,0,0,1.092,0Z" transform="translate(-313.504 -40)" fill="#3f63c8"/>
        <path id="Path_8338" data-name="Path 8338" d="M284.221,53.154a.546.546,0,0,0,.5-.768l-.444-1a.546.546,0,0,0-1,.444l.444,1A.546.546,0,0,0,284.221,53.154Z" transform="translate(-264.989 -50.309)" fill="#3f63c8"/>
        <path id="Path_8339" data-name="Path 8339" d="M241.532,84.175a.546.546,0,0,0,.366-.952l-.812-.731a.546.546,0,1,0-.731.812l.812.73A.544.544,0,0,0,241.532,84.175Z" transform="translate(-224.872 -79.461)" fill="#3f63c8"/>
        <path id="Path_8340" data-name="Path 8340" d="M215.666,129.5a.546.546,0,0,0-.351-.688l-1.039-.337a.546.546,0,1,0-.337,1.039l1.039.338a.545.545,0,0,0,.688-.351Z" transform="translate(-200.076 -122.407)" fill="#3f63c8"/>
        <path id="Path_8341" data-name="Path 8341" d="M209.575,179.709l-1.086.114a.546.546,0,0,0,.114,1.086l1.086-.114a.546.546,0,0,0-.114-1.086Z" transform="translate(-194.893 -170.17)" fill="#3f63c8"/>
        <path id="Path_8342" data-name="Path 8342" d="M447.174,180.8l1.086.114a.546.546,0,1,0,.114-1.086l-1.086-.114a.546.546,0,1,0-.114,1.086Z" transform="translate(-417.286 -170.17)" fill="#3f63c8"/>
        <path id="Path_8343" data-name="Path 8343" d="M442.356,129.874a.545.545,0,0,0,.169-.027l1.039-.337a.546.546,0,1,0-.337-1.039l-1.039.337a.546.546,0,0,0,.169,1.066Z" transform="translate(-412.743 -122.407)" fill="#3f63c8"/>
        <path id="Path_8344" data-name="Path 8344" d="M419.443,84.036l.812-.73a.546.546,0,0,0-.731-.812l-.812.731a.546.546,0,1,0,.731.812Z" transform="translate(-391.054 -79.463)" fill="#3f63c8"/>
        <path id="Path_8345" data-name="Path 8345" d="M381.4,53.154a.546.546,0,0,0,.5-.324l.444-1a.546.546,0,0,0-1-.444l-.444,1a.546.546,0,0,0,.5.768Z" transform="translate(-355.95 -50.309)" fill="#3f63c8"/>
        <path id="Path_8346" data-name="Path 8346" d="M47.127,289.83h-7.1v-.546c0-.82-1.067-1.417-1.394-1.581a.548.548,0,0,0-.087-.035l-5.345-1.6c-.338-.3-1.547-1.348-3.025-2.412-2.36-1.7-4.19-2.56-5.439-2.56H20.369v-.546a.546.546,0,0,0-.546-.546H16.546a.546.546,0,0,0-.546.546V292.56a.546.546,0,0,0,.546.546h3.277a.546.546,0,0,0,.546-.546v-.546h1.613c.341.045,3.128.6,5.591,1.082,4.927.973,5.623,1.1,5.777,1.1H47.127a1.64,1.64,0,0,0,1.638-1.638v-1.092A1.64,1.64,0,0,0,47.127,289.83Zm-27.85,2.184H17.092V281.092h2.184Zm28.4.546a.547.547,0,0,1-.546.546H33.375c-.341-.045-3.128-.6-5.591-1.082-4.928-.973-5.624-1.1-5.777-1.1H20.369v-8.737h4.369c2.066,0,6.35,3.447,7.826,4.775a.546.546,0,0,0,.208.117l5.413,1.624a2.036,2.036,0,0,1,.75.6v1.075a.547.547,0,0,1-.5.544l-5.311-1.062-3.746-2.14a.546.546,0,0,0-.542.948l3.823,2.184a.545.545,0,0,0,.164.061L38.282,292a.544.544,0,0,0,.107.01,1.641,1.641,0,0,0,1.545-1.092h7.193a.547.547,0,0,1,.546.546Z" transform="translate(-16 -263.617)" fill="#3f63c8"/>
      </g>
    </g>
  </g>
</svg>
