<svg xmlns="http://www.w3.org/2000/svg" width="68" height="68" viewBox="0 0 68 68">
  <g id="Group_13246" data-name="Group 13246" transform="translate(-293.092 -814.879)">
    <g id="Path_8334" data-name="Path 8334" transform="translate(293.092 814.879)" fill="#f5f7fc">
      <path d="M 34 67.5 C 29.47731018066406 67.5 25.09016990661621 66.61434173583984 20.96043968200684 64.86760711669922 C 16.97134971618652 63.18035888671875 13.38866996765137 60.76482009887695 10.31192016601563 57.68807983398438 C 7.235179901123047 54.611328125 4.819640159606934 51.02864837646484 3.132390022277832 47.03955841064453 C 1.3856600522995 42.90982818603516 0.5 38.52268981933594 0.5 34 C 0.5 29.47731018066406 1.3856600522995 25.09016990661621 3.132390022277832 20.96043968200684 C 4.819640159606934 16.97134971618652 7.235179901123047 13.38866996765137 10.31192016601563 10.31192016601563 C 13.38866996765137 7.235179901123047 16.97134971618652 4.819640159606934 20.96043968200684 3.132390022277832 C 25.09016990661621 1.3856600522995 29.47731018066406 0.5 34 0.5 C 38.52268981933594 0.5 42.90982818603516 1.3856600522995 47.03955841064453 3.132390022277832 C 51.02864837646484 4.819640159606934 54.611328125 7.235179901123047 57.68807983398438 10.31192016601563 C 60.76482009887695 13.38866996765137 63.18035888671875 16.97134971618652 64.86760711669922 20.96043968200684 C 66.61434173583984 25.09016990661621 67.5 29.47731018066406 67.5 34 C 67.5 38.52268981933594 66.61434173583984 42.90982818603516 64.86760711669922 47.03955841064453 C 63.18035888671875 51.02864837646484 60.76482009887695 54.611328125 57.68807983398438 57.68807983398438 C 54.611328125 60.76482009887695 51.02864837646484 63.18035888671875 47.03955841064453 64.86760711669922 C 42.90982818603516 66.61434173583984 38.52268981933594 67.5 34 67.5 Z" stroke="none"/>
      <path d="M 34 1 C 29.54458999633789 1 25.22298049926758 1.872383117675781 21.15522003173828 3.592887878417969 C 17.2257194519043 5.254928588867188 13.69646072387695 7.634490966796875 10.66548156738281 10.66548156738281 C 7.634490966796875 13.69646072387695 5.254928588867188 17.2257194519043 3.592887878417969 21.15522003173828 C 1.872383117675781 25.22298049926758 1 29.54458999633789 1 34 C 1 38.45541000366211 1.872383117675781 42.77701950073242 3.592887878417969 46.84477996826172 C 5.254928588867188 50.7742805480957 7.634490966796875 54.30353927612305 10.66548156738281 57.33451843261719 C 13.69646072387695 60.36550903320313 17.2257194519043 62.74507141113281 21.15522003173828 64.40711212158203 C 25.22298049926758 66.12761688232422 29.54458999633789 67 34 67 C 38.45541000366211 67 42.77701950073242 66.12761688232422 46.84477996826172 64.40711212158203 C 50.7742805480957 62.74507141113281 54.30353927612305 60.36550903320313 57.33451843261719 57.33451843261719 C 60.36550903320313 54.30353927612305 62.74507141113281 50.7742805480957 64.40711212158203 46.84477996826172 C 66.12761688232422 42.77701950073242 67 38.45541000366211 67 34 C 67 29.54458999633789 66.12761688232422 25.22298049926758 64.40711212158203 21.15522003173828 C 62.74507141113281 17.2257194519043 60.36550903320313 13.69646072387695 57.33451843261719 10.66548156738281 C 54.30353927612305 7.634490966796875 50.7742805480957 5.254928588867188 46.84477996826172 3.592887878417969 C 42.77701950073242 1.872383117675781 38.45541000366211 1 34 1 M 34 0 C 52.77767944335938 0 68 15.22232055664063 68 34 C 68 52.77767944335938 52.77767944335938 68 34 68 C 15.22232055664063 68 0 52.77767944335938 0 34 C 0 15.22232055664063 15.22232055664063 0 34 0 Z" stroke="none" fill="#3f63c8"/>
    </g>
    <g id="search_1_" data-name="search (1)" transform="translate(310.51 832.365)">
      <path id="Path_8102" data-name="Path 8102" d="M4.7,1.95a.488.488,0,1,0,.488.488A.488.488,0,0,0,4.7,1.95Zm-1.95,0a.488.488,0,1,0,.488.488A.488.488,0,0,0,2.754,1.95Zm3.9,0a.488.488,0,1,0,.488.488A.488.488,0,0,0,6.655,1.95Zm13.6,24.58,3.128,3.128a2.835,2.835,0,0,0,4.009-4.009l-3.128-3.128a1.52,1.52,0,0,0-1.691-.312l-1.141-1.141A9.047,9.047,0,0,0,8.515,8.639a.488.488,0,0,0,.6.765,8.065,8.065,0,1,1-1.507,1.557.488.488,0,0,0-.785-.579A9.049,9.049,0,0,0,18.664,23.564l1.274,1.274a1.526,1.526,0,0,0,.313,1.693ZM22.8,23.211a.544.544,0,0,1,.768,0L26.7,26.34a1.859,1.859,0,1,1-2.63,2.63l-3.128-3.128a.547.547,0,0,1,0-.768Zm-3.307-.2a9.08,9.08,0,0,0,1.014-.875q.153-.153.3-.313l1,1-1.25,1.25Zm13.3-4.168a.488.488,0,0,0,.488-.488V2.438A2.441,2.441,0,0,0,30.849,0H2.438A2.441,2.441,0,0,0,0,2.438V30.849a2.441,2.441,0,0,0,2.438,2.438H30.849a2.441,2.441,0,0,0,2.438-2.438V20.636a.488.488,0,0,0-.975,0V30.849a1.464,1.464,0,0,1-1.463,1.463H2.438A1.464,1.464,0,0,1,.975,30.849V4.876H32.312V18.36A.488.488,0,0,0,32.8,18.848ZM.975,3.9V2.438A1.464,1.464,0,0,1,2.438.975H30.849a1.464,1.464,0,0,1,1.463,1.463V3.9ZM14.114,22.1a6.355,6.355,0,1,0-6.357-6.357A6.517,6.517,0,0,0,14.114,22.1Zm-3.308-2.11a3.387,3.387,0,0,1,1.842-2.456,2.508,2.508,0,0,0,2.931,0,3.387,3.387,0,0,1,1.842,2.456,5.394,5.394,0,0,1-6.616,0Zm1.767-4.5V14.72a1.541,1.541,0,0,1,3.081,0v.774a1.541,1.541,0,0,1-3.081,0Zm1.541-5.131A5.5,5.5,0,0,1,19.5,15.745a5.373,5.373,0,0,1-1.265,3.47A4.386,4.386,0,0,0,16.265,16.8a2.5,2.5,0,0,0,.365-1.3V14.72a2.516,2.516,0,1,0-5.032,0v.774a2.5,2.5,0,0,0,.365,1.3A4.386,4.386,0,0,0,10,19.214a5.384,5.384,0,0,1,4.117-8.852Z" transform="translate(0 0)" fill="#3f63c8"/>
    </g>
    <rect id="Rectangle_2945" data-name="Rectangle 2945" width="50" height="49" transform="translate(303.092 824.879)" fill="none"/>
  </g>
</svg>
