<svg xmlns="http://www.w3.org/2000/svg" width="640" height="448.103" viewBox="0 0 640 448.103">
  <path id="youtube" d="M626.813,64.035A80.177,80.177,0,0,0,570.407,7.621c-50.082-13.7-250.414-13.7-250.414-13.7S119.669-6.082,69.587,7.1C42.7,14.477,20.555,36.621,13.18,64.035,0,114.113,0,217.969,0,217.969S0,322.348,13.18,371.9a80.191,80.191,0,0,0,56.41,56.41C120.2,442.02,320,442.02,320,442.02s200.324,0,250.406-13.184a80.184,80.184,0,0,0,56.414-56.406C640,322.348,640,218.5,640,218.5s.527-104.383-13.184-154.461Zm-370.6,249.879V122.023L422.8,217.968Zm0,0" transform="translate(0 6.082)" fill="#e7ebf6"/>
</svg>
