<svg xmlns="http://www.w3.org/2000/svg" xmlns:xlink="http://www.w3.org/1999/xlink" width="130" height="101" viewBox="0 0 130 101">
  <defs>
    <clipPath id="clip-path">
      <rect id="Rectangle_2999" data-name="Rectangle 2999" width="130" height="101" transform="translate(-7381 -7870)" fill="#fff" stroke="#707070" stroke-width="1"/>
    </clipPath>
  </defs>
  <g id="Mask_Group_106" data-name="Mask Group 106" transform="translate(7381 7870)" clip-path="url(#clip-path)">
    <g id="Group_13146" data-name="Group 13146" transform="translate(-47.701 -15.632)">
      <g id="Group_13143" data-name="Group 13143" transform="translate(-7920 -8046)">
        <g id="man-in-suit-and-tie" transform="translate(587.701 237.632)">
          <g id="Group_12467" data-name="Group 12467" transform="translate(0 -21)">
            <path id="Path_8121" data-name="Path 8121" d="M8.333,28.475A6.048,6.048,0,0,0,9.7,31.449c1.341,9.338,9.723,17.3,16.455,16.963,8.564-.42,14.634-9.65,16-16.963a7.462,7.462,0,0,0,1.433-3.285c.364-1.678.757-4.207-.252-5.545-.06-.07-.445-.424-.511-.483.963-3.475,3.079-9.674-2.189-15.247-2.855-3.019-6.819-4.536-10.4-5.734C19.646-2.379,12.178,2.578,8.732,10.819c-.249.585-1.856,4.287.091,11.317a2,2,0,0,0-.5.483C7.306,23.954,7.965,26.8,8.333,28.475Z" transform="translate(11.233 0)" fill="#dd3939"/>
            <path id="Path_8122" data-name="Path 8122" d="M76.624,46.944c-.294-6.427-.658-16.613-6.273-24.945a12.444,12.444,0,0,0-5.4-3.632s-8.245-2.511-12.042-5.226l-1.734,1.187L51.37,25.6,40.961,53.389a1.555,1.555,0,0,1-2.914,0L27.64,25.6s.193-11.236.189-11.271c.025.095-1.737-1.187-1.737-1.187-3.79,2.714-12.038,5.226-12.038,5.226A12.444,12.444,0,0,0,8.657,22C3.045,30.332,2.674,40.517,2.38,46.944c-.2,4.441.729,6.1,1.9,6.571,14.522,5.828,55.918,5.828,70.443,0C75.9,53.046,76.823,51.385,76.624,46.944Z" transform="translate(-2.352 32.886)" fill="#dd3939"/>
            <path id="Path_8123" data-name="Path 8123" d="M16.644,15.42l-.469.011a13.919,13.919,0,0,1-4.539-.813l4.126,6.315-3.7,3.573L15.87,47.647a.408.408,0,0,0,.406.343.413.413,0,0,0,.406-.343l3.811-23.141-3.706-3.573,4.066-6.221A17.436,17.436,0,0,1,16.644,15.42Z" transform="translate(20.879 36.582)" fill="#dd3939"/>
          </g>
        </g>
        <g id="man-in-suit-and-tie-2" data-name="man-in-suit-and-tie" transform="translate(648.701 252.614)">
          <g id="Group_12467-2" data-name="Group 12467" transform="translate(13.299 -16.62)">
            <path id="Path_8121-2" data-name="Path 8121" d="M8.172,20.2a4.29,4.29,0,0,0,.967,2.109c.952,6.624,6.9,12.269,11.673,12.033,6.075-.3,10.381-6.845,11.347-12.033a5.293,5.293,0,0,0,1.016-2.331c.258-1.19.537-2.984-.179-3.933-.042-.05-.316-.3-.363-.343.683-2.465,2.184-6.863-1.553-10.816C29.056,2.745,26.243,1.67,23.7.82,16.2-1.687,10.9,1.829,8.455,7.675c-.176.415-1.317,3.041.065,8.028a1.416,1.416,0,0,0-.358.343C7.444,16.992,7.911,19.01,8.172,20.2Z" transform="translate(5.707 0)" fill="#dd3939"/>
            <path id="Path_8122-2" data-name="Path 8122" d="M55.039,37.12c-.209-4.559-.467-11.785-4.45-17.7a8.828,8.828,0,0,0-3.829-2.577s-5.849-1.782-8.542-3.707l-1.23.842.137,8L29.74,41.692a1.1,1.1,0,0,1-2.067,0L20.291,21.979s.137-7.971.134-8c.017.067-1.232-.842-1.232-.842-2.688,1.926-8.54,3.707-8.54,3.707a8.828,8.828,0,0,0-3.829,2.577c-3.98,5.911-4.244,13.136-4.453,17.7-.144,3.151.517,4.326,1.347,4.661,10.3,4.134,39.668,4.134,49.972,0C54.525,41.449,55.181,40.271,55.039,37.12Z" transform="translate(-2.352 19.51)" fill="#dd3939"/>
            <path id="Path_8123-2" data-name="Path 8123" d="M15.188,15.187l-.333.007a9.874,9.874,0,0,1-3.22-.576l2.927,4.48-2.626,2.534,2.7,16.416a.289.289,0,0,0,.288.243.293.293,0,0,0,.288-.243l2.7-16.416L15.29,19.1l2.885-4.413A12.369,12.369,0,0,1,15.188,15.187Z" transform="translate(11.43 21.702)" fill="#dd3939"/>
          </g>
        </g>
      </g>
    </g>
  </g>
</svg>
