<svg xmlns="http://www.w3.org/2000/svg" xmlns:xlink="http://www.w3.org/1999/xlink" width="130" height="101" viewBox="0 0 130 101">
  <defs>
    <clipPath id="clip-path">
      <rect id="Rectangle_3002" data-name="Rectangle 3002" width="130" height="101" transform="translate(-6775 -7870)" fill="#fff" stroke="#707070" stroke-width="1"/>
    </clipPath>
  </defs>
  <g id="Mask_Group_103" data-name="Mask Group 103" transform="translate(6775 7870)" clip-path="url(#clip-path)">
    <g id="dollar-coin" transform="translate(-6757 -7883.043)">
      <path id="Path_8138" data-name="Path 8138" d="M16.78,96.371a40.883,40.883,0,0,1,20.363-35.4,35.442,35.442,0,1,0,0,70.8A40.883,40.883,0,0,1,16.78,96.371Z" transform="translate(0 0)" fill="#5474cc"/>
      <path id="Path_8139" data-name="Path 8139" d="M157.321,60.94a35.441,35.441,0,1,0,35.441,35.441A35.483,35.483,0,0,0,157.321,60.94Zm2.739,53.874v4.034a2.739,2.739,0,1,1-5.479,0v-4.034c-2.234,0-5.39.3-9.115-2.287a2.74,2.74,0,0,1,3.123-4.5,7.015,7.015,0,0,0,3.906,1.309h9.2a5.107,5.107,0,0,0,0-10.215h-8.737a10.6,10.6,0,0,1-10.585-10.585c0-5.243,3.553-10.587,12.214-10.587V73.914a2.739,2.739,0,0,1,5.479,0v4.034a13.632,13.632,0,0,1,5.784.88v0a12.714,12.714,0,0,1,4.591,3.154v0a2.739,2.739,0,0,1-4.036,3.7,7.019,7.019,0,0,0-5.017-2.263h-8.432a5.107,5.107,0,0,0,0,10.215h8.737a10.6,10.6,0,0,1,10.585,10.585C172.275,109.839,168.35,114.814,160.061,114.814Z" transform="translate(-99.621 -0.01)" fill="#5474cc"/>
    </g>
  </g>
</svg>
