<svg xmlns="http://www.w3.org/2000/svg" xmlns:xlink="http://www.w3.org/1999/xlink" width="130" height="101" viewBox="0 0 130 101">
  <defs>
    <clipPath id="clip-path">
      <rect id="Rectangle_3001" data-name="Rectangle 3001" width="130" height="101" transform="translate(-6945 -7870)" fill="#fff" stroke="#707070" stroke-width="1"/>
    </clipPath>
  </defs>
  <g id="Mask_Group_104" data-name="Mask Group 104" transform="translate(6945 7870)" clip-path="url(#clip-path)">
    <g id="Group_13145" data-name="Group 13145" transform="translate(-8297.752 -8060.529)">
      <path id="Path_8124" data-name="Path 8124" d="M80.611,283.091a16.547,16.547,0,0,1-13.394,6.834H59.5a6.166,6.166,0,0,1-5.8-4.061,19.57,19.57,0,0,1-3.117-1.232,21,21,0,0,1-5.821-4.309A24.856,24.856,0,0,0,25.274,304.59v1.553a3.866,3.866,0,0,0,3.867,3.866H89.13A3.866,3.866,0,0,0,93,306.144V304.59A24.838,24.838,0,0,0,80.611,283.091Z" transform="translate(1330.478 -11.091)" fill="#005c92"/>
      <path id="Path_8125" data-name="Path 8125" d="M96.011,38.433a4.4,4.4,0,0,0,3.858-2.28l.06.161.018.048a17.183,17.183,0,0,0,9.689,10.2,6.158,6.158,0,0,1,5.219-2.886h7.717a4.32,4.32,0,0,0,2.114-.568,8.721,8.721,0,0,0,2.493-2.879,22.252,22.252,0,0,0,1.93-4.079,4.425,4.425,0,0,0,1.217,1.4v1.892a7.763,7.763,0,0,1-7.754,7.754h-7.717a2.642,2.642,0,0,0,0,5.283h7.717a13.052,13.052,0,0,0,13.037-13.037V37.552a4.4,4.4,0,0,0,1.761-3.522V23.011a4.4,4.4,0,0,0-1.828-3.57,21.12,21.12,0,0,0-42.106,0,4.4,4.4,0,0,0-1.828,3.57V34.03A4.4,4.4,0,0,0,96.011,38.433Zm18.478-33.15A15.858,15.858,0,0,1,130.247,19.55a4.417,4.417,0,0,0-1.237,1.529c-2.493-6.5-8.057-11.031-14.521-11.031-6.6,0-12.079,4.683-14.512,11l-.01.026A4.419,4.419,0,0,0,98.73,19.55,15.859,15.859,0,0,1,114.489,5.283Z" transform="translate(1275.124 222.83)" fill="#005c92"/>
      <path id="Path_8124-2" data-name="Path 8124" d="M66.429,282.381a12.306,12.306,0,0,1-9.961,5.083H50.728a4.586,4.586,0,0,1-4.31-3.02,14.55,14.55,0,0,1-2.318-.916,15.614,15.614,0,0,1-4.329-3.2,18.485,18.485,0,0,0-14.5,18.048v1.155A2.875,2.875,0,0,0,28.15,302.4H72.764a2.875,2.875,0,0,0,2.876-2.875v-1.155A18.472,18.472,0,0,0,66.429,282.381Z" transform="translate(1404.004 -3.401)" fill="#005c92"/>
      <path id="Path_8125-2" data-name="Path 8125" d="M94.882,28.583a3.273,3.273,0,0,0,2.869-1.7l.045.12.013.036a12.779,12.779,0,0,0,7.206,7.587,4.58,4.58,0,0,1,3.882-2.146h5.739a3.213,3.213,0,0,0,1.572-.423,6.486,6.486,0,0,0,1.854-2.141,16.548,16.548,0,0,0,1.435-3.034,3.291,3.291,0,0,0,.905,1.043v1.407a5.773,5.773,0,0,1-5.767,5.767H108.9a1.965,1.965,0,0,0,0,3.929h5.739a9.707,9.707,0,0,0,9.7-9.7V27.928a3.269,3.269,0,0,0,1.31-2.619v-8.2a3.269,3.269,0,0,0-1.359-2.655,15.707,15.707,0,0,0-31.314,0,3.269,3.269,0,0,0-1.359,2.655v8.2A3.276,3.276,0,0,0,94.882,28.583ZM108.624,3.929a11.794,11.794,0,0,1,11.72,10.61,3.285,3.285,0,0,0-.92,1.137c-1.854-4.836-5.992-8.2-10.8-8.2-4.911,0-8.983,3.483-10.792,8.184l-.007.019a3.286,3.286,0,0,0-.92-1.137A11.794,11.794,0,0,1,108.624,3.929Z" transform="translate(1345.836 242.412)" fill="#005c92"/>
    </g>
  </g>
</svg>
