<svg xmlns="http://www.w3.org/2000/svg" width="67.49" height="67.49" viewBox="0 0 67.49 67.49">
  <g id="Youtube" transform="translate(0.5 0.5)">
    <path id="Oval" d="M33.245,0A33.245,33.245,0,1,1,0,33.245,33.245,33.245,0,0,1,33.245,0Z" fill="none" stroke="#fff" stroke-width="1"/>
    <path id="Youtube-2" data-name="Youtube" d="M16.114,25.066h0c-.084,0-8.421-.061-10.946-.342-.136-.032-.3-.056-.493-.083a4.518,4.518,0,0,1-3.064-1.455A8.571,8.571,0,0,1,.334,19.654,57.061,57.061,0,0,1,0,13.9V11.223C0,8.356.33,5.441.334,5.412A7.793,7.793,0,0,1,1.611,1.88,4.39,4.39,0,0,1,4.738.407h.007L4.834.4C9.282.061,16.046,0,16.114,0s6.832.061,11.28.4l.153.013a4.1,4.1,0,0,1,3.07,1.468A8.571,8.571,0,0,1,31.9,5.413c0,.029.334,2.942.334,5.811V13.9c0,2.81-.33,5.724-.334,5.754a8.574,8.574,0,0,1-1.278,3.532,4.39,4.39,0,0,1-3.126,1.472h-.007l-.09.008C22.945,25.062,16.182,25.066,16.114,25.066ZM12.224,6.779V19.142L22.782,13.1Z" transform="translate(17.131 20.712)" fill="#fff"/>
  </g>
</svg>
