<svg xmlns="http://www.w3.org/2000/svg" width="67.49" height="67.49" viewBox="0 0 67.49 67.49">
  <g id="Linkedin" transform="translate(0.5 0.5)">
    <path id="Oval" d="M33.245,0A33.245,33.245,0,1,1,0,33.245,33.245,33.245,0,0,1,33.245,0Z" fill="none" stroke="#fff" stroke-width="1"/>
    <path id="Linkedin-2" data-name="Linkedin" d="M19.878,25.066V16.927c0-1.945-.029-4.443-2.7-4.443-2.706,0-3.111,2.12-3.111,4.3v8.284H8.88V8.323h4.967v2.294h.068a5.457,5.457,0,0,1,4.918-2.7c5.257,0,6.233,3.465,6.233,7.975v9.175Zm-14.274,0H.406V8.323H5.6V25.066h0ZM8.871,8.323h.01ZM0,3.02A3.015,3.015,0,1,1,3.015,6.039,3.015,3.015,0,0,1,0,3.02Z" transform="translate(20.712 19.883)" fill="#fff"/>
  </g>
</svg>
