<svg xmlns="http://www.w3.org/2000/svg" width="67.49" height="67.49" viewBox="0 0 67.49 67.49">
  <g id="Twitter" transform="translate(0.605 0.396)">
    <circle id="Oval" cx="33.245" cy="33.245" r="33.245" transform="translate(-0.105 0.104)" fill="none" stroke="#fff" stroke-width="1"/>
    <path id="Twitter-2" data-name="Twitter" d="M28.647,2.755a11.79,11.79,0,0,1-3.376.926A5.894,5.894,0,0,0,27.855.431a11.745,11.745,0,0,1-3.733,1.425,5.88,5.88,0,0,0-10.168,4.02,5.943,5.943,0,0,0,.153,1.34A16.684,16.684,0,0,1,2,1.076,5.882,5.882,0,0,0,3.814,8.92a5.828,5.828,0,0,1-2.661-.735V8.26a5.878,5.878,0,0,0,4.713,5.761,5.868,5.868,0,0,1-1.548.206,5.781,5.781,0,0,1-1.106-.106A5.886,5.886,0,0,0,8.7,18.2a11.807,11.807,0,0,1-7.3,2.514A11.846,11.846,0,0,1,0,20.636a16.632,16.632,0,0,0,9.01,2.64c10.81,0,16.722-8.954,16.722-16.718,0-.256-.007-.507-.017-.76a11.945,11.945,0,0,0,2.932-3.041h0Z" transform="translate(18.667 21.853)" fill="#fff"/>
  </g>
</svg>
