<svg xmlns="http://www.w3.org/2000/svg" width="48.807" height="47.65" viewBox="0 0 48.807 47.65">
  <g id="communications" transform="translate(0 -6.055)">
    <g id="Group_11917" data-name="Group 11917" transform="translate(0 6.055)">
      <path id="Path_8073" data-name="Path 8073" d="M13.49,31.091H11.307a.715.715,0,0,0-.379.109L5.86,34.368V31.806a.715.715,0,0,0-.715-.715H2.64A1.212,1.212,0,0,1,1.43,29.88V8.7A1.212,1.212,0,0,1,2.64,7.485H27.677A1.212,1.212,0,0,1,28.888,8.7v4.084a.715.715,0,1,0,1.43,0V8.7a2.643,2.643,0,0,0-2.64-2.64H2.64A2.643,2.643,0,0,0,0,8.7V29.88a2.643,2.643,0,0,0,2.64,2.64H4.43v3.137a.72.72,0,0,0,1.094.606l5.989-3.743H13.49a.715.715,0,1,0,0-1.43Z" transform="translate(0 -6.055)" fill="#3f63c8"/>
      <path id="Path_8074" data-name="Path 8074" d="M293.67,228.228a3.808,3.808,0,0,0-2.764,3.666v.2a2.256,2.256,0,0,0,4.489.312,6.3,6.3,0,1,0-8.536-5.894,2.256,2.256,0,1,0,4.511,0,1.83,1.83,0,0,1,.018-.253,1.792,1.792,0,1,1,2.282,1.971Zm2.7-1.957a3.241,3.241,0,0,0-2.883-2.966q-.164-.016-.326-.016a3.214,3.214,0,0,0-3.193,2.77,3.265,3.265,0,0,0-.031.451.826.826,0,0,1-1.652,0,4.912,4.912,0,0,1,.047-.679,4.872,4.872,0,1,1,6.207,5.352.769.769,0,0,0-.535.54.711.711,0,0,0-.021.177v.192a.826.826,0,0,1-1.652,0v-.2a2.388,2.388,0,0,1,1.739-2.295A3.206,3.206,0,0,0,296.374,226.271Z" transform="translate(-259.515 -199.793)" fill="#3f63c8"/>
      <path id="Path_8075" data-name="Path 8075" d="M331.569,390.388a2.256,2.256,0,1,0-2.256-2.256A2.258,2.258,0,0,0,331.569,390.388Zm0-3.081a.826.826,0,1,1-.826.826A.827.827,0,0,1,331.569,387.307Z" transform="translate(-297.922 -349.671)" fill="#3f63c8"/>
      <path id="Path_8076" data-name="Path 8076" d="M70.711,123.471a2.256,2.256,0,1,0,2.256-2.256A2.258,2.258,0,0,0,70.711,123.471Zm3.081,0a.826.826,0,1,1-.826-.826A.827.827,0,0,1,73.792,123.471Z" transform="translate(-63.971 -110.238)" fill="#3f63c8"/>
      <path id="Path_8077" data-name="Path 8077" d="M139.872,123.471a2.256,2.256,0,1,0-2.256,2.256A2.258,2.258,0,0,0,139.872,123.471Zm-2.256.826a.826.826,0,1,1,.826-.826A.827.827,0,0,1,137.617,124.3Z" transform="translate(-122.458 -110.238)" fill="#3f63c8"/>
      <path id="Path_8078" data-name="Path 8078" d="M200.012,123.471a2.256,2.256,0,1,0,2.256-2.256A2.258,2.258,0,0,0,200.012,123.471Zm3.081,0a.826.826,0,1,1-.826-.826A.827.827,0,0,1,203.093,123.471Z" transform="translate(-180.946 -110.238)" fill="#3f63c8"/>
      <path id="Path_8079" data-name="Path 8079" d="M199.074,112.082H183.226V104.81a.715.715,0,1,0-1.43,0v7.272h-7.759a2.643,2.643,0,0,0-2.64,2.64v5.063h-1.661a.715.715,0,0,0,0,1.43H171.4v14.692a2.643,2.643,0,0,0,2.64,2.64h10.851a.715.715,0,0,0,0-1.43H174.037a1.212,1.212,0,0,1-1.211-1.211V114.723a1.212,1.212,0,0,1,1.211-1.211h25.037a1.212,1.212,0,0,1,1.211,1.211v21.185a1.212,1.212,0,0,1-1.211,1.211h-2.5a.715.715,0,0,0-.715.715v2.562l-5.069-3.168a.715.715,0,0,0-.379-.109h-2.183a.715.715,0,0,0,0,1.43H190.2l5.989,3.743a.72.72,0,0,0,1.094-.606v-3.137h1.789a2.643,2.643,0,0,0,2.64-2.64V114.723A2.643,2.643,0,0,0,199.074,112.082Z" transform="translate(-152.908 -94.749)" fill="#3f63c8"/>
    </g>
  </g>
</svg>
