<svg id="employee" xmlns="http://www.w3.org/2000/svg" width="50.352" height="55.236" viewBox="0 0 50.352 55.236">
  <g id="Group_11297" data-name="Group 11297" transform="translate(0 0)">
    <path id="Path_7994" data-name="Path 7994" d="M103.454,36.9a18.425,18.425,0,0,0,18.334-16.363.826.826,0,0,0-1.642-.185,16.709,16.709,0,0,1-3.284,8.234A5.839,5.839,0,0,0,114.38,26.5a28.228,28.228,0,0,0-6.5-1.435.2.2,0,0,1-.175-.2l-.01-2.279c.162-.121.322-.249.479-.385A6.685,6.685,0,0,0,110.39,18a1.978,1.978,0,0,0,1.638-1.956l-.005-1.275a1.969,1.969,0,0,0-.626-1.435l-.013-3.143a5.671,5.671,0,0,0-5.672-5.649h-.025l-5,.021A2.919,2.919,0,0,0,97.96,6.48a2.936,2.936,0,0,0-2.879,2.944L95.1,13.4a1.968,1.968,0,0,0-.614,1.44l.005,1.275a1.977,1.977,0,0,0,1.655,1.943,6.685,6.685,0,0,0,2.25,4.188c.158.135.319.261.482.381l.01,2.279a.2.2,0,0,1-.174.2,28.243,28.243,0,0,0-6.486,1.49,5.8,5.8,0,0,0-2.278,1.834,16.8,16.8,0,1,1,30.21-11.764.826.826,0,0,0,1.643-.174A18.451,18.451,0,1,0,103.454,36.9Zm-1.421-1.713.528-2.275,1.537-.006.555,2.3a16.844,16.844,0,0,1-2.619-.019Zm2.219-3.934-1.859.008-.491-.9,1.413-.728,1.42.72Zm-3.719-7.7a7.415,7.415,0,0,0,2.751.536h.018a7.417,7.417,0,0,0,2.746-.559l.006,1.343a1.841,1.841,0,0,0,.27.952l-3.015,1.9-3.031-1.878a1.841,1.841,0,0,0,.262-.954Zm13.181,4.457a4.185,4.185,0,0,1,2.023,1.91,16.779,16.779,0,0,1-9.434,5.084l-.679-2.817.65-1.211a2.611,2.611,0,0,0,2.332-.839l2.571-2.863a13.9,13.9,0,0,1,2.537.736Zm-5.746-1.27c.358.047.807.11,1.3.188l-1.892,2.106a.968.968,0,0,1-1.142.222h0l-.022-.01-1.227-.622ZM98.009,8.131a1.59,1.59,0,0,0,1.5-1.068,1.265,1.265,0,0,1,1.189-.852l5-.021h.018a4.018,4.018,0,0,1,4.02,4l.012,2.838a3,3,0,0,0-1.148.556h-.024l-.01-2.268a2.64,2.64,0,0,0-2.653-2.63h-.021c-1,0-1.45.414-2.546.419h-.24c-1.133,0-1.453-.392-2.533-.4h-.021a2.644,2.644,0,0,0-2.63,2.652l.008,1.87a5.958,5.958,0,0,0-1.176-.217l-.015-3.6A1.282,1.282,0,0,1,98.009,8.131Zm-.276,9.1a.826.826,0,0,0-.826-.8h0l-.435,0h0a.325.325,0,0,1-.325-.323l-.005-1.275a.314.314,0,0,1,.063-.192,3.509,3.509,0,0,1,1.625.346,1.034,1.034,0,0,0,1.757-.742l-.012-2.887a.99.99,0,0,1,.986-.993h.021a19.644,19.644,0,0,0,2.549.4h.224a20.469,20.469,0,0,0,2.546-.419h.026a.989.989,0,0,1,.989.985l.012,2.887c0,1.171,2.112,1.249,2.64.723a1.428,1.428,0,0,1,.757-.338.315.315,0,0,1,.052.173l.005,1.275c0,.465-.641.3-.759.328a.826.826,0,0,0-.823.812,5.09,5.09,0,0,1-1.7,3.769,5.686,5.686,0,0,1-7.625.032,5.092,5.092,0,0,1-1.735-3.755Zm.908,9.547,3,1.857-1.221.629-.02.01h0a.968.968,0,0,1-1.142-.212l-1.909-2.085C97.836,26.9,98.283,26.832,98.64,26.782ZM92.905,28.1a13.876,13.876,0,0,1,2.532-.757l2.6,2.837a2.613,2.613,0,0,0,2.335.817l.66,1.21-.64,2.758a16.794,16.794,0,0,1-9.343-5.207A4.152,4.152,0,0,1,92.905,28.1Z" transform="translate(-78.276 0)" fill="#3f63c8"/>
    <path id="Path_7995" data-name="Path 7995" d="M67.933,316.273l-12.706,5.594v-.038a.792.792,0,0,0,0-.092,4.848,4.848,0,0,0-4.155-4.331l-.021,0L42.6,316.43c-3.846-.548-5.572-4.006-12.388-4.006h-.527v-.855a2.285,2.285,0,0,0-2.282-2.282H24.929a2.285,2.285,0,0,0-2.282,2.282v15.8a2.285,2.285,0,0,0,2.282,2.282H27.4a2.283,2.283,0,0,0,2.275-2.149c7.787,2.742,8.776,3.658,11.492,3.658H52.565a9.225,9.225,0,0,0,4.927-1.423l14.249-8.039a3.307,3.307,0,0,0,.685-4.465C71.435,315.773,69.756,315.415,67.933,316.273Zm2.912,4.031-14.183,8-.036.022a7.576,7.576,0,0,1-4.061,1.178H41.17c-2.279,0-2.939-.724-11.485-3.766v-5.991a.826.826,0,0,0-1.652,0v7.618a.631.631,0,0,1-.63.63H24.929a.631.631,0,0,1-.63-.63v-15.8a.631.631,0,0,1,.63-.63H27.4a.631.631,0,0,1,.63.63v4.316a.826.826,0,1,0,1.652,0v-1.809h.527c6.465,0,7.671,3.355,12.167,3.991l.021,0,8.448.973a3.2,3.2,0,0,1,2.728,2.814l-.006.457H47.714a28.187,28.187,0,0,1-4.06-.3l-1.462-.213a.826.826,0,1,0-.239,1.635l1.462.214a29.833,29.833,0,0,0,4.3.312h6.671a.852.852,0,0,0,.33-.069l13.893-6.117c.965-.429,1.852-.5,2.451.378A1.683,1.683,0,0,1,70.845,320.3Z" transform="translate(-22.647 -275.919)" fill="#3f63c8"/>
  </g>
</svg>
